PathFileType	4	(X/Y/Z)	RBDS028\RBDS028runT45.trc
DataRate	CameraRate	NumFrames	NumMarkers	Units	OrigDataRate	OrigDataStartFrame	OrigNumFrames
150.000000	150.000000	5	33	mm	150.000000	562	4500
Frame#	Time	L.ASIS			L.Heel.Bottom			L.Heel.Lateral			L.Heel.Top			L.Iliac.Crest			L.MT1			L.MT5			L.PSIS			L.Shank.Bottom.Lateral			L.Shank.Bottom.Medial			L.Shank.Top.Lateral			L.Shank.Top.Medial			L.Thigh.Bottom.Lateral			L.Thigh.Bottom.Medial			L.Thigh.Top.Lateral			L.Thigh.Top.Medial			R.ASIS			R.ASY			R.Heel.Bottom			R.Heel.Lateral			R.Heel.Top			R.Iliac.Crest			R.MT1			R.MT5			R.PSIS			R.Shank.Bottom.Lateral			R.Shank.Bottom.Medial			R.Shank.Top.Lateral			R.Shank.Top.Medial			R.Thigh.Bottom.Lateral			R.Thigh.Bottom.Medial			R.Thigh.Top.Lateral			R.Thigh.Top.Medial			
		X1	Y1	Z1	X2	Y2	Z2	X3	Y3	Z3	X4	Y4	Z4	X5	Y5	Z5	X6	Y6	Z6	X7	Y7	Z7	X8	Y8	Z8	X9	Y9	Z9	X10	Y10	Z10	X11	Y11	Z11	X12	Y12	Z12	X13	Y13	Z13	X14	Y14	Z14	X15	Y15	Z15	X16	Y16	Z16	X17	Y17	Z17	X18	Y18	Z18	X19	Y19	Z19	X20	Y20	Z20	X21	Y21	Z21	X22	Y22	Z22	X23	Y23	Z23	X24	Y24	Z24	X25	Y25	Z25	X26	Y26	Z26	X27	Y27	Z27	X28	Y28	Z28	X29	Y29	Z29	X30	Y30	Z30	X31	Y31	Z31	X32	Y32	Z32	X33	Y33	Z33	

563	3.746666666666667	1904.561077437355	845.9570292531135	891.1883378929044	1497.811965886889	80.76416816859701	1001.615906473356	1530.242352379567	86.45610491487565	956.8828275027198	1520.892485439337	119.986784908678	999.9225026785716	1826.299574358232	885.7263211253584	869.5142012254576	1708.901327709366	33.51929775665232	1039.508527828701	1666.951002873298	34.31217818015622	931.2446623104092	1753.358006283719	858.3630693520613	974.7113330654463	1627.675716679441	176.4097849799091	933.9587848736655	1597.571752819093	203.3137265660466	964.9363077244005	1661.161171068111	243.4746595857603	903.4916799284391	1637.77300231649	273.838221731552	940.7601931573359	1833.374474286315	511.5216708425635	849.2432491935768	1768.858141857363	513.1500982985988	882.1539227900564	1829.545476133674	621.2821038771601	837.8212925240576	1769.661512905308	622.0170572996194	873.1523781772725	1913.88609401359	842.0714561998291	1133.111226551655	1864.816413976641	199.7848478190331	1076.802360618251	1728.503283439428	326.873975542723	1037.530386816927	1754.071200855918	313.1689022075502	1084.801595382947	1772.088465258644	340.6690174614138	1041.915810038478	1849.217561589588	894.6280806409789	1155.943963071867	1851.942256549866	142.2983724342604	1030.221290314894	1810.528243119986	174.7855811614808	1131.307631874489	1758.9857279645	851.8981379041755	1063.498689624869	1871.107638693513	344.1249952718892	1116.261164174787	1855.806129644343	377.1062555503989	1074.51084346779	1925.770729422374	400.3340558887431	1137.281916459388	1911.390577664454	430.5878291508462	1095.207655973823	2060.666300063754	570.3697282696883	1186.439843357073	2022.352718026013	528.0758698325897	1142.855372127057	1977.911023131153	644.0557468207194	1187.795263673941	1939.071916714223	600.4403511984584	1151.950571357918	
564	3.753333333333333	1905.670736637718	847.0909926607821	890.2689685690221	1472.519566394067	92.09009262257074	1000.74089887532	1505.029639420851	95.0233949535708	955.9076887433753	1497.599586185057	129.8836333059955	998.3287558405202	1830.83519386236	889.6075984835575	868.2990863636442	1679.75765427955	33.2421420961176	1039.337665301353	1637.84659848533	34.82791871322887	930.9597603789495	1754.542901043479	861.7116931782861	972.7776308795621	1603.757766388718	184.3896898689276	932.7802055789242	1574.707166827578	211.0345103559221	964.8933734928794	1637.918817582107	251.527446600576	903.3366560675374	1615.52464426045	281.4490240847022	941.5316850674113	1818.207127872502	515.5105277458563	849.8866771539601	1754.617908007642	520.5803984245356	884.039843189595	1819.668667844664	625.2285140945236	837.7459404408937	1760.750040076032	629.1706146105577	874.3628894204228	1914.484506345485	847.0841352448775	1131.655767751218	1897.844859566724	188.8108177508362	1078.815032522344	1750.876993675695	303.0006187681615	1036.600367891828	1777.03127835907	292.3498628610653	1084.28214294116	1793.120295227565	320.7369358561099	1041.030463988706	1849.932667028707	899.7010022762296	1154.72092327535	1890.692499833226	129.5965383679587	1033.245929665871	1845.221201746235	159.9828804354864	1133.331428859303	1759.709977512912	855.7642378156407	1061.985673147441	1891.549842639703	334.3364873926433	1115.417306685122	1873.70915713672	365.0460845753031	1072.788251656334	1941.187068666715	395.6137755905812	1135.201467052118	1924.522785156553	423.6142395351856	1092.333130284721	2066.374655670078	580.232393367154	1183.018653892091	2028.851049891763	536.7762070338833	1139.660296689127	1981.663183275779	651.5921911643734	1185.370921592256	1943.857322936768	606.9983375880762	1149.637416440459	
565	3.76	1906.643361088139	848.2649988328606	889.2144977500085	1448.840954247194	104.7571190495619	999.2171800147553	1481.25160253337	104.6545527880515	954.3670693816595	1476.047716874216	140.7913901341975	996.0842777626634	1836.03292909067	893.4417723435508	867.2113240160497	1651.140424254193	33.25679266492593	1039.052251972383	1609.342329918543	35.64845157616267	930.4364533714512	1755.811395207778	865.1870907851323	971.1626934035346	1581.306928911807	192.9706525470599	931.0934049990748	1553.229758322639	219.2042815500513	964.3715569116783	1616.065236773294	260.3030873653543	902.8512753378196	1594.502688887147	289.647003100904	941.9539845935025	1803.477944497459	520.344776579565	850.501031072718	1741.195454077174	528.7265825360723	886.2721783394501	1810.030070981786	629.7723814604802	837.7255026554675	1752.453727962447	636.7925662317213	875.9445898864071	1915.610743959608	852.1396725604428	1129.766645620426	1931.610599630561	178.9436415007808	1080.584561228969	1775.131738233713	279.0197135719826	1035.904328094775	1801.660714023821	271.5639230923928	1083.919893002751	1815.609285350066	300.5806945155127	1040.294211994501	1851.490121353385	905.1389114721078	1153.498778493701	1930.267841585551	118.5290057685888	1036.001322445967	1881.202429300789	146.5231564114847	1135.269267244333	1760.749854532178	859.9454603100683	1060.882941235291	1912.461783399337	324.3697150394439	1114.602541624031	1892.297442499827	352.609423758702	1071.128390813466	1956.631934039449	390.2533001473789	1133.194538577966	1937.903609332505	415.8149031986775	1089.573103134737	2071.052362744087	589.0806413471554	1179.360021697457	2033.902887691762	544.6185652482226	1136.595591758453	1984.926302125969	658.6096916753725	1182.864346611358	1947.780695224992	613.2505465277478	1147.505652796389	
566	3.766666666666667	1907.444844289957	849.5134613357263	888.0656537500298	1426.998283709671	118.7270904220797	997.0840329278573	1459.071146842767	115.3745855255432	952.2831027862994	1456.406628894676	152.6606693589142	993.2231074212207	1841.637761271621	897.2023423644664	866.2699655607804	1623.14168296275	33.72775487259644	1038.569862086911	1581.502010099027	36.95806822020881	929.6514804439436	1757.097070993349	868.8041302300145	969.8654761797361	1560.499634781111	202.0313327757218	928.9120542964178	1533.301887531511	227.7456828254208	963.339411406801	1595.839335142284	269.6319195042247	902.0206301450099	1574.937808649302	298.3113111869334	941.9745244437675	1789.517347756748	525.8696627153948	851.0626459597549	1728.800415838567	537.3522477777881	888.6740852529631	1800.875618923638	634.8071140734249	837.7639843228022	1744.917843098929	644.6996092905881	877.7875540315529	1917.160777899166	857.1230545786825	1127.507012466532	1965.876023807154	170.4025739305465	1081.940180756236	1801.155942529856	255.2238825079436	1035.653169437703	1827.917940366581	251.0398241079307	1083.863953114636	1839.438316655202	280.4456701499403	1039.892190291765	1853.668193878208	910.7909706835221	1152.293831569257	1970.302207529298	109.3986757232758	1038.222188282497	1918.350888843517	134.6115629719826	1136.964645486876	1762.034418623941	864.3995768285172	1060.157763542455	1933.794778310519	314.3190695722406	1113.894761245058	1911.503785189726	339.9570917939052	1069.676982127637	1972.150344664239	384.2445691507412	1131.381556072579	1951.555599828942	407.2578113545273	1087.108316092765	2074.772764736303	596.7090251487227	1175.543756875379	2037.5525007279	551.3778338068854	1133.795636376746	1987.754846808784	664.9587351563323	1180.311275210317	1950.852660593431	619.0182720708747	1145.654655987594	
567	3.773333333333333	1908.0645172333	850.8727597480719	886.8704342319504	1407.165022473134	133.937379803806	994.471566486083	1438.608253083638	127.2162900870507	949.7574307080567	1438.791419777388	165.4358934648599	989.8741064408516	1847.376039824574	900.8938294180607	865.4792267915387	1595.849305751705	34.83414490889962	1037.797651673545	1554.375168347039	38.99640413437151	928.5931937531141	1758.338481901496	872.5706942402888	968.857590110145	1541.457459751977	211.4596733020151	926.3106007304337	1515.043905254198	236.6022556831552	961.8293251811853	1577.429330062621	279.3397709343744	900.8707318137194	1557.033710555308	307.3245236074653	941.5896671740794	1776.658539607467	531.8661117571246	851.5579486531188	1717.627149861067	546.1687552633324	891.0637547182617	1792.4558226263	640.1731101962183	837.8589535651901	1738.26552232818	652.6672802597055	879.7546448101785	1919.004088934542	861.9381686911313	1124.974137773801	2000.31920989312	163.3595449549486	1082.736740769548	1828.737932834632	231.8901773369526	1036.017671565867	1855.663679667774	230.9938285574153	1084.23598278689	1864.402707234383	260.5644661707066	1039.990610196422	1856.228096785957	916.4938143324497	1151.116632986901	2010.342020332681	102.4451214211603	1039.662790259611	1956.440317004299	124.4066244800175	1138.252594913642	1763.484060739044	869.0615759389372	1059.745532668207	1955.437868606236	304.2938726949421	1113.368963294746	1931.180679065377	327.2540572318269	1068.575957312342	1987.731822188547	377.6200497292138	1129.879500092174	1965.427706985284	398.0428060346625	1085.113110109352	2077.580292574553	602.963573750093	1171.668896822115	2039.8528238622	556.8958019295532	1131.357675539881	1990.170996492197	670.5166561027108	1177.751307550407	1953.085585431863	624.1605522999389	1144.138861538137	
